
<svg xmlns="http://www.w3.org/2000/svg" version="1.1" xmlns:xlink="http://www.w3.org/1999/xlink" preserveAspectRatio="none" x="0px" y="0px" width="226px" height="83px" viewBox="0 0 226 83">
<defs>
<g id="Layer0_0_FILL">
<path fill="#000000" stroke="none" d="
M 135.1 34.6
Q 134.95 34.7 134.85 34.85
L 133.55 38.05
Q 133.45 38.2 133.55 38.35 133.65 38.5 133.85 38.55
L 146.25 41.75
Q 146.45 41.8 146.55 41.95 146.65 42.05 146.6 42.25
L 146.2 44.3
Q 146.2 44.4 146.1 44.5 146.05 44.55 145.9 44.6
L 126.5 51.1
Q 126.35 51.15 126.3 51.2 126.25 51.3 126.25 51.4
L 124.25 60.7
Q 124.25 60.9 124.4 61.05 124.55 61.2 124.8 61.2
L 147.75 61.2
Q 147.9 61.2 148.05 61.1 148.2 61 148.25 60.85
L 152.6 39.35
Q 152.6 39.2 152.55 39.1 152.4 38.95 152.25 38.9
L 135.5 34.6
Q 135.3 34.55 135.1 34.6
M 143.7 56.65
Q 143.7 56.8 143.55 56.9 143.35 57 143.2 57
L 131.1 57
Q 130.8 57 130.65 56.85 130.5 56.7 130.55 56.55
L 130.95 54.35
Q 131 54.25 131.1 54.15 131.2 54.1 131.3 54.05
L 144.35 49.65
Q 144.6 49.55 144.85 49.7 145.05 49.85 145 50.15
L 143.7 56.65
M 42.85 48.85
Q 42.8 48.95 42.8 49.1
L 40.8 59.55
Q 40.8 59.75 40.95 59.95 41.1 60.1 41.35 60.1
L 64.3 60.1
Q 64.45 60.1 64.6 60 64.75 59.85 64.8 59.7
L 69.15 35.55
Q 69.15 35.35 69.1 35.2 68.95 35.1 68.8 35
L 52.05 30.2
Q 51.85 30.1 51.65 30.2 51.5 30.3 51.4 30.5
L 50.1 34.05
Q 50 34.25 50.1 34.4 50.2 34.6 50.4 34.65
L 62.8 38.25
Q 63 38.3 63.1 38.45 63.2 38.6 63.15 38.8
L 62.75 41.1
Q 62.75 41.2 62.65 41.3 62.6 41.4 62.45 41.4
L 43.05 48.7
Q 42.9 48.8 42.85 48.85
M 61.4 47.2
Q 61.6 47.35 61.55 47.65
L 60.25 55
Q 60.25 55.2 60.1 55.25 59.9 55.35 59.75 55.35
L 47.65 55.35
Q 47.35 55.35 47.2 55.2 47.05 55.05 47.1 54.85
L 47.5 52.35
Q 47.55 52.3 47.65 52.2 47.75 52.1 47.85 52.05
L 60.9 47.1
Q 61.15 47 61.4 47.2
M 33.9 21.7
L 36.4 19.45 38.1 23.9 40.15 32.7 44.3 0
Q 36.75 2.4 32.8 3.75
L 0.2 31.2
Q 0.05 31.35 0.05 31.55 -0.05 31.85 0.05 32
L 4.95 59.7
Q 5 60 5.1 60.1 5.25 60.25 5.45 60.25
L 31.75 60.25
Q 31.85 60.25 31.95 60.25 32.05 60.2 32.05 60.15
L 37.5 53.75 37.85 51.55 35.95 48.35
Q 35.9 48.35 35.85 48.3 35.85 48.2 35.75 48.15
L 38.1 39.45
Q 33.7 46.8 33.55 46.85 33.4 46.9 33.3 47
L 31.5 52.85
Q 29.8 51.1 29.7 51.15 29.55 51.2 26.95 54.6
L 10.35 51.2
Q 10.2 51.2 10.05 51 9.9 50.9 9.85 50.65
L 6.8 40.35
Q 7.15 35.65 7.2 35.4 7.25 35.15 11.2 31.15
L 33.05 9.15
Q 33.3 8.85 33.6 9.05 33.85 9.25 33.9 9.75
L 33.9 21.7
M 84.85 34.05
Q 83.4 36.65 83.1 37 83.4 36.2 90 24.9
L 78.6 35.85
Q 78.4 35.8 78.25 35.85 78.1 35.95 77.95 36.05
L 60.25 76.05 67.4 68.25
Q 66.35 72.15 65.35 74.15
L 68.9 72.2
Q 69 72.2 69 72.15
L 69.05 72.15 76.35 54
Q 76.45 54.05 76.5 54.05 76.55 54.05 76.6 54
L 77.75 53.6 85 62.6
Q 85.05 62.65 85.15 62.7 85.25 62.75 85.4 62.75
L 91.6 62.75 92.65 61.5 93.6 61.6 95.3 59.05 95.35 59.05 95.35 58.95
Q 95.3 58.8 95.2 58.7 95.1 58.6 94.85 58.6
L 88.25 58.6
Q 88.15 58.6 88.05 58.55 88 58.5 87.9 58.4
L 82.6 51.85 94.9 47.5
Q 95 47.45 95.1 47.4 95.15 47.3 95.15 47.25
L 96.95 38.6
Q 96.95 38.45 96.85 38.35 96.7 38.25 96.5 38.2
L 82.7 38.2 84.85 34.05
M 90.3 44.5
Q 90.2 44.55 90.15 44.6
L 78.5 48.75 81.05 42.35 90.25 42.35
Q 90.45 42.35 90.6 42.5 90.7 42.65 90.65 42.8
L 90.4 44.35
Q 90.35 44.45 90.3 44.5
M 123.5 47.25
L 125.3 38.6
Q 125.3 38.45 125.2 38.35 125.05 38.25 124.85 38.2
L 111.05 38.2 111.45 37.3
Q 111.5 37.2 111.4 37.05 111.3 36.95 111.1 36.9
L 106.95 35.85
Q 106.75 35.8 106.6 35.85 106.45 35.95 106.3 36.05
L 92.6 70.1 93.75 70.3 93.75 73.7 92.9 80.95
Q 97.35 72.2 97.35 72.15
L 97.4 72.15 104.7 54
Q 104.8 54.05 104.85 54.05 104.9 54.05 104.95 54
L 106.1 53.6 113.35 62.6
Q 113.4 62.65 113.5 62.7 113.6 62.75 113.75 62.75
L 119.95 62.75 121 61.5 121.95 61.6 123.65 59.05 123.7 59.05 123.7 58.95
Q 123.65 58.8 123.55 58.7 123.45 58.6 123.2 58.6
L 116.6 58.6
Q 116.5 58.6 116.4 58.55 116.35 58.5 116.25 58.4
L 110.95 51.85 123.25 47.5
Q 123.35 47.45 123.45 47.4 123.5 47.3 123.5 47.25
M 106.85 48.75
L 109.4 42.35 118.6 42.35
Q 118.8 42.35 118.95 42.5 119.05 42.65 119 42.8
L 118.75 44.35
Q 118.7 44.45 118.65 44.5 118.55 44.55 118.5 44.6
L 106.85 48.75
M 167.1 36.35
L 163.7 38.9 184.05 38.9 183.85 39.5 154.5 51.45
Q 154.35 51.5 154.3 51.55 154.25 51.6 154.25 51.75
L 152.5 60.45
Q 152.4 60.65 152.55 60.75 152.65 60.9 152.85 60.95
L 174.1 60.95 174 59.6 189.1 55.75
Q 180.75 56.35 180.75 56.25 180.8 56.2 180.7 56.2
L 158.1 56.2 158.4 54.95 187.65 43.1
Q 187.7 43.05 187.8 43 187.85 42.95 187.85 42.9
L 190.05 34.7
Q 190.1 34.5 190 34.35 189.9 34.2 189.7 34.15
L 154.95 34.15 167.1 36.35
M 223.6 26.3
L 203.3 48.4
Q 203.15 48.6 202.9 48.6 202.6 48.6 202.45 48.4
L 199.45 44.95
Q 199.35 44.85 199.35 44.7 199.35 44.55 199.35 44.4
L 202.55 22.4 202.55 10.6
Q 201.25 16.7 201.2 16.7
L 201.15 16.75 191.45 45.95
Q 191.45 46.15 191.45 46.25 191.5 46.4 191.6 46.5
L 198.3 50.6
Q 202.5 59.05 202.75 59.05 203 59.05 207.05 51.1
L 214.65 46.35
Q 215.05 46 215.4 46.25 215.8 46.5 215.6 47.05
L 207.15 65.45
Q 207.1 65.65 207 65.7 206.85 65.8 206.65 65.8
L 182.15 65.8 182.45 67.25 162.95 69.55 211.1 72.85
Q 211.25 72.85 211.4 72.75 211.5 72.7 211.6 72.6
L 225.85 26.5 224.2 26.15
Q 224 26.1 223.9 26.1 223.75 26.2 223.6 26.3 Z"/>
</g>
</defs>

<g transform="matrix( 1, 0, 0, 1, 0,0) ">
<use xlink:href="#Layer0_0_FILL"/>
</g>
</svg>
