
<svg xmlns="http://www.w3.org/2000/svg" version="1.1" xmlns:xlink="http://www.w3.org/1999/xlink" preserveAspectRatio="none" x="0px" y="0px" width="226px" height="44px" viewBox="0 0 226 44">
<defs>
<g id="Layer0_0_FILL">
<path fill="#000000" stroke="none" d="
M 31.4 15.6
L 39 8.75 38.95 8.6 15.95 8.6
Q 9.25 8.6 7.6 14.3
L 7.25 24.95
Q 6.85 30.3 8.05 32.5 8.75 33.6 9.05 33.85 11.2 36.15 14.8 36.15
L 18.3 36.15 19.25 36.25 20.3 36.15 35 36.15
Q 35.15 36.05 35.1 29.3
L 35.05 29.3 34.9 29.25 18.4 29.3 18.1 29.25
Q 16.65 29.25 15.6 27.75 14.9 26.45 15.25 22.45 15.1896484375 21.269921875 15.25 20.3
L 15.1 20.25
Q 15.166796875 20.2740234375 15.25 20.25 15.6037109375 15.6 18.95 15.6
L 31.4 15.6
M 66.05 21.15
Q 66.0759765625 21.0748046875 66.05 21 66.0876953125 20.2482421875 66.1 19.45 66.35 14.3 65.4 12.55
L 64.5 11.25
Q 61.75 8.6 57.3 8.6
L 45.4 8.7
Q 42.85 8.85 41.2 10.2 39.75 10.95 38.5 14.45 38.4001953125 15.2232421875 38.25 20.6 38.27578125 20.6671875 38.25 20.7 38.174609375 26.1130859375 38.05 36.15
L 38.1 36.25 45.95 36.25 46 36.15
Q 45.95 29.65 46.1 29.3
L 57.95 29.3 58 36.15 65.7 36.15
Q 65.8419921875 35.81875 66.05 21.15
M 46.15 22.55
Q 46.05390625 22.3095703125 46.15 20.8 46.1474609375 20.7826171875 46.15 20.75
L 46.15 20.7
Q 45.75 15.6 50.4 15.6
L 54.35 15.6
Q 57.15 15.6 57.9 16.95
L 58.05 17.3
Q 58.3330078125 17.7447265625 58.1 20.9 58.1291015625 20.96328125 58.1 21 58.0703125 21.7244140625 58 22.55
L 46.15 22.55
M 95.45 12.3
L 95 11.7
Q 92.3 8.45 87.1 8.45
L 68.55 8.45
Q 68.4119140625 8.772265625 68.35 21 68.350390625 21.1130859375 68.35 21.2 68.3537109375 22.1576171875 68.35 23.2 68.15 34.95 68.3 36.15
L 76.05 36.15 76.3 29.25 88 29.25 88 36.1 88.25 36.25 95.95 36.15 96 35.35
Q 96.25 28.55 95.75 27.75
L 95.65 27.5
Q 94.45 25.9 92.75 25.9
L 92.7 25.8 94.6 25.3
Q 95.976953125 24.4345703125 96.15 21.65 96.1607421875 21.488671875 96.15 21.3 96.1818359375 20.712109375 96.15 20.05 96.45 14.1 95.45 12.3
M 85.05 15.55
Q 86.55 15.55 87.55 16.35
L 87.85 16.95
Q 88.25 17.6 88.2 19.8 88.3646484375 20.6564453125 87.85 21.2 87.715234375 21.388671875 87.5 21.5 86.32890625 22.4 83.05 22.4
L 76.45 22.4
Q 76.37734375 22.2728515625 76.35 21.3 76.3728515625 21.2248046875 76.35 21.1 76.3505859375 19.4357421875 76.5 15.55
L 85.05 15.55
M 125.7 12.3
L 125.25 11.7
Q 122.55 8.45 117.35 8.45
L 98.8 8.45
Q 98.6603515625 8.776171875 98.6 21.3 98.6009765625 21.5177734375 98.6 21.7 98.602734375 22.437109375 98.6 23.2 98.4 34.95 98.55 36.15
L 106.3 36.15 106.55 29.25 118.25 29.25 118.25 36.1 118.5 36.25 126.2 36.15 126.25 35.35
Q 126.5 28.55 126 27.75
L 125.9 27.5
Q 124.7 25.9 123 25.9
L 122.95 25.8 124.85 25.3
Q 126.1005859375 24.5138671875 126.35 22.15 126.3974609375 21.7587890625 126.4 21.3 126.4318359375 20.71015625 126.4 20.05 126.7 14.1 125.7 12.3
M 106.7 22.4
Q 106.65 22.3125 106.6 21.85 106.6158203125 21.640625 106.6 21.35 106.5900390625 19.7083984375 106.75 15.55
L 115.3 15.55
Q 116.8 15.55 117.8 16.35
L 118.1 16.95
Q 118.5 17.6 118.45 19.8 118.6337890625 20.755078125 117.95 21.35 117.5455078125 21.7732421875 116.7 22 115.4703125 22.4 113.3 22.4
L 106.7 22.4
M 156.9 19.45
Q 157.15 14.3 156.2 12.55
L 155.3 11.25
Q 152.55 8.6 148.1 8.6
L 136.2 8.7
Q 133.65 8.85 132 10.2 130.55 10.95 129.3 14.45 129.194921875 15.2646484375 129.05 22.2
L 129.05 22.25
Q 128.9578125 27.4728515625 128.85 36.15
L 128.9 36.25 136.75 36.25 136.8 36.15
Q 136.75 29.65 136.9 29.3
L 148.75 29.3 148.8 36.15 156.5 36.15
Q 156.65 35.8 156.9 19.45
M 145.15 15.6
Q 147.95 15.6 148.7 16.95
L 148.85 17.3
Q 149.2 17.85 148.8 22.55
L 129.2 22.2
Q 136.926171875 21.080859375 136.95 20.7 136.55 15.6 141.2 15.6
L 145.15 15.6
M 187 14.85
L 187 14.85
Q 186.943359375 8.95078125 186.8 8.7
L 159.55 8.6
Q 159.4 8.7 159.5 15.7
L 159.55 15.7 159.7 15.8 179.1 15.8 179.1 15.85
Q 179.086328125 16.1255859375 179.05 16.35 178.6591796875 18.9908203125 175.7 19.65 174.68828125 19.9 173.35 19.9
L 166.85 19.9
Q 161.1 19.9 159.4 24.8
L 159.1 36.1 159.3 36.25 186.8 36.25
Q 187 35.75 187 29.5
L 186.9 29.3 166.95 29.25
Q 166.832421875 28.897265625 166.9 28.4 166.9263671875 28.062109375 167.05 27.65 168.0490234375 26.401171875 169.45 25.85 170.6259765625 25.4 172.05 25.4
L 179 25.4
Q 185.45 25.4 187.1 20.4 187.071875 17.200390625 187 14.85
M 208.55 36.25
Q 208.8 35.95 208.75 29.3 215.55 29.3 216.8 23.9 216.7 9 216.55 8.7
L 208.95 8.7 208.8 17.95
Q 209.45 22.45 205.2 22.45
L 199.3 22.45
Q 197.8 22.45 197.4 21.65
L 197.15 21.3
Q 197 20.5 197.05 8.85
L 197 8.7 189.2 8.7 189.05 19.15
Q 188.6 24 189.65 25.8
L 190.05 26.4
Q 192.5 29.3 197.35 29.3
L 200.65 29.3 200.8 36.25 208.55 36.25 Z"/>
</g>
</defs>

<g transform="matrix( 1, 0, 0, 1, 0,0) ">
<use xlink:href="#Layer0_0_FILL"/>
</g>
</svg>
